<svg width="64" height="64" viewBox="0 0 64 64" fill="none" xmlns="http://www.w3.org/2000/svg">
<path d="M32 2C15.432 2 2 15.432 2 32C2 48.568 15.432 62 32 62C48.568 62 62 48.568 62 32C62 15.432 48.568 2 32 2ZM32 59.5C16.836 59.5 4.5 47.164 4.5 32C4.5 16.836 16.836 4.5 32 4.5C47.163 4.5 59.5 16.836 59.5 32C59.5 47.164 47.163 59.5 32 59.5Z" fill="#C5E6FF"/>
<path d="M44.584 40.279C36.474 45.935 27.478 45.902 19.416 40.279C18.446 39.602 17.571 40.774 18.229 41.857C20.687 45.904 25.646 49.507 32 49.507C38.354 49.507 43.313 45.903 45.771 41.857C46.429 40.774 45.554 39.603 44.584 40.279Z" fill="#C5E6FF"/>
<path d="M27.272 27.793C27.751 28.298 28.71 27.369 28.526 26.855C26.667 21.744 23.866 19.186 21.065 19.186C18.264 19.186 15.463 21.744 13.605 26.855C13.421 27.37 14.379 28.298 14.859 27.793C16.661 25.892 18.816 25.135 21.066 25.135C23.315 25.135 25.47 25.892 27.272 27.793" fill="#C5E6FF"/>
<path d="M42.935 19.186C40.134 19.186 37.333 21.744 35.474 26.855C35.29 27.37 36.249 28.298 36.728 27.793C38.531 25.892 40.685 25.135 42.935 25.135C45.185 25.135 47.339 25.892 49.142 27.793C49.621 28.298 50.58 27.369 50.396 26.855C48.536 21.743 45.735 19.186 42.935 19.186Z" fill="#C5E6FF"/>
</svg>
